<?xml version="1.0" encoding="utf-8"?>
<!-- Generator: Adobe Illustrator 23.0.1, SVG Export Plug-In . SVG Version: 6.00 Build 0)  -->
<svg version="1.1" id="Layer_1" xmlns="http://www.w3.org/2000/svg" xmlns:xlink="http://www.w3.org/1999/xlink" x="0px" y="0px"
	 viewBox="0 0 30 30" style="enable-background:new 0 0 30 30;" xml:space="preserve">
<style type="text/css">
	.st0{display:none;}
	.st1{fill:none;stroke:#FFFFFF;stroke-miterlimit:10;}
	.st2{fill:#FFFFFF;}
</style>
<rect class="st0" width="30" height="30"/>
<circle class="st1" cx="15.1" cy="15" r="14"/>
<g>
	<path class="st2" d="M15.5,6.4l-1.1,0.5l0.5,1l0.5-0.3l6.3,3.2v4.3c0,2-0.9,3.9-2.5,5.1L15.5,23l-3.8-2.9c-1.6-1.2-2.5-3.1-2.5-5.1
		v-4.3l0.6-0.3l-0.5-1L8,10.1v5c0,2.4,1.1,4.6,3,6l4.5,3.4l4.5-3.4c1.9-1.4,3-3.6,3-6v-5L15.5,6.4z"/>
	<rect x="12.6" y="7.6" transform="matrix(0.8944 -0.4472 0.4472 0.8944 -2.2789 6.7486)" class="st2" width="1.2" height="1.2"/>
	<rect x="10.5" y="8.7" transform="matrix(0.8944 -0.4472 0.4472 0.8944 -2.9589 5.9347)" class="st2" width="1.2" height="1.2"/>
	<path class="st2" d="M11.2,17.4l4.3,2.7l4.3-2.7v-5l-4.3-2.7l-4.3,2.7V17.4z M18.7,16.8l-2.6,1.6v-3l2.6-1.6V16.8z M15.5,11.2
		l2.6,1.6l-2.6,1.6l-2.6-1.6L15.5,11.2z M12.3,13.8l2.6,1.6v3l-2.6-1.6V13.8z"/>
</g>
</svg>
