<?xml version="1.0" encoding="utf-8"?>
<!-- Generator: Adobe Illustrator 23.0.1, SVG Export Plug-In . SVG Version: 6.00 Build 0)  -->
<svg version="1.1" id="Layer_1" xmlns="http://www.w3.org/2000/svg" xmlns:xlink="http://www.w3.org/1999/xlink" x="0px" y="0px"
	 viewBox="0 0 30 30" style="enable-background:new 0 0 30 30;" xml:space="preserve">
<style type="text/css">
	.st0{display:none;}
	.st1{fill:none;stroke:#FFFFFF;stroke-miterlimit:10;}
	.st2{fill:#FFFFFF;}
</style>
<rect class="st0" width="30" height="30"/>
<circle class="st1" cx="15.1" cy="15" r="14"/>
<g>
	<path class="st2" d="M22.9,11.4L22.9,11.4c0-0.2,0-0.4,0-0.6c0-1-0.8-1.9-1.9-1.9c-2.2-0.1-3.8-0.8-5.2-2.2l0,0
		c-0.5-0.4-1.2-0.4-1.6,0l0,0C12.7,8,11.1,8.7,8.9,8.8c-1,0.1-1.9,0.9-1.9,1.9c0,0.2,0,0.4,0,0.6l0,0c0,2.2-0.1,4.9,0.8,7.4
		c0.5,1.4,1.3,2.5,2.3,3.5c1.1,1.1,2.6,2,4.4,2.6c0.1,0,0.1,0,0.2,0c0.1,0,0.2,0,0.3,0s0.2,0,0.3,0c0.1,0,0.1,0,0.2,0
		c1.8-0.6,3.3-1.5,4.4-2.6c1-1,1.8-2.2,2.3-3.5C23,16.3,23,13.6,22.9,11.4L22.9,11.4z M21.1,18.4c-1,2.6-2.9,4.4-6,5.5c0,0,0,0,0,0
		c0,0-0.1,0-0.1,0c0,0,0,0,0,0c-3.1-1.1-5.1-2.9-6-5.5c-0.8-2.3-0.8-4.8-0.8-7l0,0c0-0.2,0-0.4,0-0.6c0-0.5,0.4-0.8,0.8-0.9
		c1.2-0.1,2.3-0.3,3.3-0.7c1-0.4,1.9-1,2.7-1.8c0,0,0.1,0,0.1,0c0.8,0.8,1.7,1.4,2.7,1.8c1,0.4,2.1,0.7,3.3,0.7
		c0.5,0,0.8,0.4,0.8,0.9c0,0.2,0,0.4,0,0.6C21.9,13.6,21.9,16.1,21.1,18.4L21.1,18.4z M21.1,18.4"/>
	<path class="st2" d="M15,11c-2.6,0-4.7,2.1-4.7,4.7c0,2.6,2.1,4.7,4.7,4.7c2.6,0,4.7-2.1,4.7-4.7C19.6,13.1,17.5,11,15,11L15,11z
		 M15,19.2c-2,0-3.6-1.6-3.6-3.6s1.6-3.6,3.6-3.6c2,0,3.6,1.6,3.6,3.6S16.9,19.2,15,19.2L15,19.2z M15,19.2"/>
	<path class="st2" d="M16.3,14.2l-2.2,2.2l-0.6-0.6c-0.2-0.2-0.6-0.2-0.8,0c-0.2,0.2-0.2,0.6,0,0.8l1,1c0.1,0.1,0.2,0.2,0.4,0.2
		c0.1,0,0.3-0.1,0.4-0.2l2.6-2.6c0.2-0.2,0.2-0.6,0-0.8C16.9,14,16.5,14,16.3,14.2L16.3,14.2z M16.3,14.2"/>
</g>
</svg>
