<svg xmlns="http://www.w3.org/2000/svg" viewBox="0 0 480 480"><defs><style>.cls-1{fill:#fff;}</style></defs><g id="object"><path class="cls-1" d="M399,144c-132.3,0-240,107.7-240,240S266.7,624,399,624,639,516.3,639,384,531.3,144,399,144Zm0,464c-123.5,0-224-100.5-224-224S275.5,160,399,160,623,260.5,623,384,522.5,608,399,608Z" transform="translate(-159 -144)"/><path class="cls-1" d="M511,296H327v-8a8.2,8.2,0,0,0-4.4-7.2l-32-16a8,8,0,0,0-7.2,14.4L311,292.9V416a39.9,39.9,0,0,0,23.1,36.1A31.9,31.9,0,1,0,391,472a31,31,0,0,0-4.5-16h57a31,31,0,0,0-4.5,16,32,32,0,1,0,32-32H351a24.1,24.1,0,0,1-24-24H479a8,8,0,0,0,7.6-5.6l32-104a7.8,7.8,0,0,0-1.2-7.1A7.9,7.9,0,0,0,511,296ZM471,456a16,16,0,1,1-16,16A16,16,0,0,1,471,456Zm-112,0a16,16,0,1,1-16,16A16,16,0,0,1,359,456Zm114.1-56H327V312H500.2Z" transform="translate(-159 -144)"/><path class="cls-1" d="M402.5,385.5a6.7,6.7,0,0,1-4.9-2.1l-27.5-27.5a6.9,6.9,0,0,1,9.8-9.8l23,22.9,48.6-41.3a7,7,0,1,1,9,10.6L407,383.8A7,7,0,0,1,402.5,385.5Z" transform="translate(-159 -144)"/></g></svg>