<?xml version="1.0" encoding="utf-8"?>
<!-- Generator: Adobe Illustrator 23.0.1, SVG Export Plug-In . SVG Version: 6.00 Build 0)  -->
<svg version="1.1" id="Layer_1" xmlns="http://www.w3.org/2000/svg" xmlns:xlink="http://www.w3.org/1999/xlink" x="0px" y="0px"
	 viewBox="0 0 30 30" style="enable-background:new 0 0 30 30;" xml:space="preserve">
<style type="text/css">
	.st0{display:none;}
	.st1{fill:none;stroke:#FFFFFF;stroke-miterlimit:10;}
	.st2{fill:#FFFFFF;}
</style>
<rect class="st0" width="30" height="30"/>
<circle class="st1" cx="15.1" cy="15" r="14"/>
<g>
	<path class="st2" d="M19.8,22.8c0.4,0,0.9-0.1,1.3-0.2c0.5-0.1,0.9-0.5,1.1-0.9l0.8-1.4c0.3-0.4,0.1-1-0.3-1.3l-3.3-2.2
		c-0.4-0.3-1-0.2-1.3,0.2l-1,1.2c-0.1,0.2-0.3,0.2-0.5,0.1l-0.2-0.1c-0.6-0.3-1.4-0.7-2.9-2.2s-1.9-2.3-2.2-2.9l-0.1-0.2
		c-0.1-0.2-0.1-0.4,0.1-0.5l1.2-1c0.4-0.3,0.5-0.9,0.2-1.3L10.7,7c-0.3-0.4-0.8-0.6-1.3-0.3L8,7.6C7.6,7.8,7.3,8.2,7.2,8.7
		c-0.5,1.8-0.1,4.9,4.4,9.5C15.2,21.8,18,22.8,19.8,22.8z M7.7,8.9C7.8,8.5,8,8.2,8.3,8l1.4-0.8c0.2-0.1,0.4-0.1,0.6,0.1l1.2,1.8
		l1,1.5c0.1,0.2,0.1,0.4-0.1,0.6l-1.2,1c-0.4,0.3-0.5,0.8-0.3,1.2l0.1,0.2c0.3,0.6,0.8,1.4,2.3,3c1.6,1.6,2.4,2,3,2.3l0.2,0.1
		c0.4,0.2,0.9,0.1,1.2-0.3l1-1.2c0.1-0.2,0.4-0.2,0.6-0.1l3.3,2.2c0.2,0.1,0.2,0.4,0.1,0.6l-0.8,1.4c-0.2,0.3-0.5,0.5-0.8,0.6
		c-1.7,0.5-4.6,0.1-8.9-4.3S7.2,10.5,7.7,8.9z"/>
	<path class="st2" d="M16.2,9.3c2.5,0,4.6,2.1,4.6,4.6c0,0.1,0.1,0.3,0.3,0.3s0.3-0.1,0.3-0.3c0-2.8-2.3-5.1-5.1-5.1
		c-0.1,0-0.3,0.1-0.3,0.3S16,9.3,16.2,9.3z"/>
	<path class="st2" d="M16.2,10.9c1.6,0,3,1.3,3,3c0,0.1,0.1,0.3,0.3,0.3s0.3-0.1,0.3-0.3c0-1.9-1.6-3.5-3.5-3.5
		c-0.1,0-0.3,0.1-0.3,0.3S16,10.9,16.2,10.9z"/>
	<path class="st2" d="M16.2,12.6c0.7,0,1.3,0.6,1.3,1.3c0,0.1,0.1,0.3,0.3,0.3c0.1,0,0.3-0.1,0.3-0.3c0-1-0.8-1.9-1.9-1.9
		c-0.1,0-0.3,0.1-0.3,0.3S16,12.6,16.2,12.6z"/>
</g>
</svg>
