<?xml version="1.0" encoding="utf-8"?>
<!-- Generator: Adobe Illustrator 23.0.1, SVG Export Plug-In . SVG Version: 6.00 Build 0)  -->
<svg version="1.1" id="Layer_1" xmlns="http://www.w3.org/2000/svg" xmlns:xlink="http://www.w3.org/1999/xlink" x="0px" y="0px"
	 viewBox="0 0 30 30" style="enable-background:new 0 0 30 30;" xml:space="preserve">
<style type="text/css">
	.st0{display:none;}
	.st1{fill:none;stroke:#FFFFFF;stroke-miterlimit:10;}
	.st2{fill:#FFFFFF;}
</style>
<rect class="st0" width="30" height="30"/>
<circle class="st1" cx="15.1" cy="15" r="14"/>
<g>
	<path class="st2" d="M21.4,18.8c-0.4,0-0.7,0.3-0.7,0.7s0.3,0.7,0.7,0.7c0.4,0,0.7-0.3,0.7-0.7S21.7,18.8,21.4,18.8L21.4,18.8z
		 M21.4,18.8"/>
	<path class="st2" d="M21,16.2c-0.2,0-0.3,0.1-0.3,0.3c0,0.2,0.1,0.3,0.3,0.3c0.2,0,0.3-0.1,0.3-0.3C21.4,16.4,21.2,16.2,21,16.2
		L21,16.2z M21,16.2"/>
	<path class="st2" d="M11.3,18.8c-0.4,0-0.7,0.3-0.7,0.7s0.3,0.7,0.7,0.7c0.4,0,0.7-0.3,0.7-0.7S11.7,18.8,11.3,18.8L11.3,18.8z
		 M11.3,18.8"/>
	<path class="st2" d="M22.6,14.9l-0.6-2.3c0.2-0.2,0.3-0.4,0.3-0.7c0-0.5-0.4-1-1-1h-2.6v-1c0-0.5-0.4-1-1-1H8.2c-0.5,0-1,0.4-1,1
		v8.5c0,0.5,0.4,1,1,1h1.2c0,1.1,0.9,2,2,2s2-0.9,2-2h6.1c0,1.1,0.9,2,2,2c1.1,0,2-0.9,2-2c0,0,0,0,0-0.1c0.4-0.1,0.7-0.5,0.7-0.9
		v-2C24,15.7,23.4,15.1,22.6,14.9L22.6,14.9z M21.4,12.9l0.5,2h-2.7l0.8-0.8c0.1-0.1,0.1-0.3,0-0.5c-0.1-0.1-0.3-0.1-0.5,0l-0.8,0.8
		v-1.5H21.4z M21.7,12c0,0.2-0.1,0.3-0.3,0.3h-2.6v-0.7h2.6C21.6,11.6,21.7,11.8,21.7,12L21.7,12z M11.3,20.8
		c-0.7,0-1.3-0.6-1.3-1.3c0-0.7,0.6-1.3,1.3-1.3c0.7,0,1.3,0.6,1.3,1.3C12.6,20.2,12.1,20.8,11.3,20.8L11.3,20.8z M13.2,18.8
		c-0.3-0.8-1-1.3-1.9-1.3c-0.8,0-1.6,0.5-1.9,1.3H8.2c-0.2,0-0.3-0.1-0.3-0.3V10c0-0.2,0.1-0.3,0.3-0.3h9.6c0.2,0,0.3,0.1,0.3,0.3
		v8.9H13.2z M21.4,20.8c-0.7,0-1.3-0.6-1.3-1.3c0-0.7,0.6-1.3,1.3-1.3c0.7,0,1.3,0.6,1.3,1.3C22.7,20.2,22.1,20.8,21.4,20.8
		L21.4,20.8z M23.2,18.8c-0.3-0.7-1-1.2-1.8-1.2c-0.8,0-1.6,0.5-1.9,1.3h-0.8v-3.3h3.6c0.4,0,0.8,0.3,0.9,0.7h-0.9
		c-0.2,0-0.3,0.1-0.3,0.3c0,0.2,0.1,0.3,0.3,0.3h1v1.6C23.3,18.6,23.3,18.7,23.2,18.8L23.2,18.8z M23.2,18.8"/>
	<path class="st2" d="M13,11c-1.6,0-3,1.3-3,3s1.3,3,3,3s3-1.3,3-3S14.6,11,13,11L13,11z M13,16.2c-1.3,0-2.3-1-2.3-2.3
		s1-2.3,2.3-2.3s2.3,1,2.3,2.3S14.2,16.2,13,16.2L13,16.2z M13,16.2"/>
	<path class="st2" d="M14.3,13.6h-1v-1c0-0.2-0.1-0.3-0.3-0.3c-0.2,0-0.3,0.1-0.3,0.3v1.3c0,0.2,0.1,0.3,0.3,0.3h1.3
		c0.2,0,0.3-0.1,0.3-0.3C14.6,13.7,14.5,13.6,14.3,13.6L14.3,13.6z M14.3,13.6"/>
</g>
</svg>
