<?xml version="1.0" encoding="utf-8"?>
<!-- Generator: Adobe Illustrator 23.0.1, SVG Export Plug-In . SVG Version: 6.00 Build 0)  -->
<svg version="1.1" id="Layer_1" xmlns="http://www.w3.org/2000/svg" xmlns:xlink="http://www.w3.org/1999/xlink" x="0px" y="0px"
	 viewBox="0 0 30 30" style="enable-background:new 0 0 30 30;" xml:space="preserve">
<style type="text/css">
	.st0{display:none;}
	.st1{fill:none;stroke:#FFFFFF;stroke-miterlimit:10;}
	.st2{fill:#FFFFFF;}
</style>
<rect class="st0" width="30" height="30"/>
<circle class="st1" cx="15.1" cy="15" r="14"/>
<g>
	<path class="st2" d="M20.3,15.5c0-0.1-0.1-0.2-0.2-0.2c-0.1,0-0.2,0.1-0.2,0.2c0,0.2-0.1,0.3-0.3,0.3c-0.2,0-0.3-0.1-0.3-0.3
		c0-0.1-0.1-0.2-0.2-0.2c-0.1,0-0.2,0.1-0.2,0.2c0,0.4,0.4,0.8,0.8,0.8C19.9,16.3,20.3,15.9,20.3,15.5z"/>
	<path class="st2" d="M22.4,15.3L21.7,15c-0.1,0-0.2-0.1-0.2-0.2c-0.1-0.5-0.4-0.9-0.7-1.3c-0.1-0.2-0.3-0.4-0.4-0.5c0,0,0,0,0,0
		c0.1-0.4,0.2-1,0.1-1.4c0-0.6-0.1-1-0.4-1.1c-0.1-0.1-0.5-0.3-2.7,0.7c-0.1,0-0.1,0.1-0.1,0.1c-0.1,0-0.3-0.1-0.4-0.1
		c0,0,0,0-0.1,0l0,0c0.2-0.4,0.3-0.8,0.3-1.2c0-0.1-0.1-0.2-0.2-0.3c-0.1,0-0.2,0.1-0.3,0.2c0,0.7-0.3,1.4-0.8,1.9
		c-0.3,0.3-0.7,0.5-1,0.7c-0.7-0.1-1.3-0.1-2,0c-0.4-0.1-0.7-0.4-1-0.7c-0.5-0.5-0.8-1.3-0.8-2c0-0.8,0.3-1.5,0.8-2
		C12.3,7.3,13,7,13.8,7s1.5,0.3,2,0.8C16,8,16.2,8.3,16.3,8.6c0.1,0.1,0.2,0.2,0.3,0.1c0.1-0.1,0.2-0.2,0.1-0.3
		c-0.2-0.3-0.4-0.6-0.6-0.9c-0.6-0.6-1.5-1-2.4-1s-1.7,0.3-2.4,1c-0.6,0.6-1,1.5-1,2.4c0,0.9,0.3,1.7,1,2.4c0.2,0.2,0.4,0.3,0.6,0.5
		c0,0,0,0,0,0c-0.2,0-0.3,0.1-0.5,0.1c-0.1,0-0.2,0.2-0.2,0.3c0,0.1,0.2,0.2,0.3,0.2c1.3-0.4,2.8-0.4,4.1,0c0,0,0.1,0,0.1,0
		c0.1,0,0.2-0.1,0.2-0.2c0-0.1,0-0.3-0.2-0.3c-0.1,0-0.3-0.1-0.5-0.1c0,0,0,0,0,0c0.2-0.1,0.4-0.3,0.6-0.5c0.2-0.2,0.3-0.3,0.4-0.5
		c0.1,0,0.1,0,0.2,0c0.1,0,0.2,0,0.3,0.1c0,0,0,0,0,0c-0.1,0.6-0.1,1.1,0,1.5c0.1,0.4,0.3,0.7,0.6,0.9c0.4,0.3,0.8,0.4,1.2,0.4
		c0.3,0,0.6-0.1,0.8-0.2c0.2-0.1,0.4-0.4,0.6-0.8c0.1,0.1,0.1,0.2,0.2,0.3c0.3,0.3,0.5,0.7,0.6,1.1c0.1,0.2,0.3,0.4,0.5,0.5l0.7,0.2
		c0.2,0.1,0.3,0.2,0.3,0.4v1.1c0,0.2-0.1,0.4-0.3,0.4L21.1,18c-0.2,0.1-0.3,0.2-0.4,0.3c-0.4,0.8-1.1,1.4-2,1.9
		c-0.1,0.1-0.2,0.2-0.2,0.3l-0.4,1.9c0,0.1-0.1,0.1-0.1,0.1h-1.2c-0.1,0-0.1,0-0.1-0.1l-0.2-1c0-0.2-0.2-0.3-0.4-0.3
		c-0.5,0.1-1,0.1-1.5,0.1c-0.4,0-0.8,0-1.1-0.1c-0.2,0-0.4,0.1-0.4,0.3l-0.2,1c0,0.1-0.1,0.1-0.1,0.1h-1.2c-0.1,0-0.1,0-0.1-0.1
		l-0.3-1.8c0-0.1-0.1-0.2-0.2-0.3c-1.6-0.8-2.4-2.2-2.4-4c0-0.9,0.2-1.7,0.6-2.4c0.4-0.6,0.9-1.2,1.6-1.6c0.1-0.1,0.2-0.2,0.1-0.3
		c-0.1-0.1-0.2-0.2-0.3-0.1c-1.3,0.8-2.1,2-2.4,3.5v0c0,0,0,0-0.1,0c0-0.2,0-0.3-0.1-0.5c-0.1-0.4-0.4-0.6-0.7-0.6
		c-0.2,0-0.5,0.1-0.6,0.3c-0.2,0.3-0.2,0.6-0.1,0.7c0.1,0.3,0.4,0.4,1,0.5c0,0,0,0,0,0.1c-0.3,0.4-0.7,0.5-0.9,0.5
		c-0.1,0-0.3,0.1-0.3,0.3v0c0,0.1,0.1,0.2,0.2,0.3c0,0,0,0,0.1,0c0.3,0,0.8-0.1,1.2-0.7c0.1-0.1,0.1-0.2,0.2-0.3c0,0,0.1,0,0.1,0
		c0,0,0,0,0,0c0,0.1,0,0.3,0,0.4c0,1,0.2,1.9,0.7,2.7c0.4,0.7,1.1,1.3,1.9,1.7l0.3,1.7c0.1,0.3,0.3,0.5,0.6,0.5h1.2
		c0.3,0,0.5-0.2,0.6-0.5l0.2-0.9c0.4,0,0.7,0.1,1.1,0.1c0.5,0,1,0,1.5-0.1l0.2,0.9c0.1,0.3,0.3,0.5,0.6,0.5H18
		c0.3,0,0.5-0.2,0.6-0.5l0.3-1.8c1-0.5,1.7-1.2,2.2-2c0-0.1,0.1-0.1,0.1-0.1l1.1-0.4c0.4-0.1,0.6-0.5,0.6-0.9v-1.1
		C23,15.7,22.7,15.4,22.4,15.3z M20,12.3c-0.1,0.8-0.3,1.5-0.6,1.6c-0.3,0.2-1,0.2-1.5-0.2c-0.5-0.4-0.7-1-0.5-1.9c0,0,0,0,0,0
		c0-0.1,0.1-0.2,0.2-0.2c1.2-0.6,1.9-0.7,2.2-0.7c0,0,0.1,0,0.1,0C20,11.1,20.1,11.5,20,12.3z M6.9,15.1c0-0.1,0-0.1,0.1-0.2
		c0.1-0.1,0.1-0.1,0.2-0.1c0,0,0,0,0,0c0.1,0,0.3,0.1,0.4,0.3c0,0,0,0.1,0.1,0.2C7.2,15.3,6.9,15.2,6.9,15.1z"/>
	<path class="st2" d="M13.7,11.4c-0.5,0-0.9-0.3-0.9-0.5c0-0.1,0.1-0.2,0.2-0.2c0.1,0,0.3,0.3,0.7,0.3v-1c-0.4-0.1-0.8-0.3-0.8-0.8
		c0-0.5,0.4-0.8,0.8-0.8V8.2c0-0.1,0.1-0.1,0.1-0.1c0.1,0,0.1,0,0.1,0.1v0.1c0.3,0,0.7,0.1,0.7,0.3c0,0.1-0.1,0.2-0.2,0.2
		c-0.1,0-0.2-0.1-0.5-0.2v0.9c0.4,0.1,0.8,0.3,0.8,0.9c0,0.5-0.3,0.8-0.8,0.9v0.1c0,0.1-0.1,0.1-0.1,0.1c-0.1,0-0.1,0-0.1-0.1
		L13.7,11.4L13.7,11.4z M13.8,9.5V8.7c-0.2,0-0.4,0.1-0.4,0.4C13.4,9.3,13.5,9.4,13.8,9.5z M14,10v0.9c0.2,0,0.4-0.2,0.4-0.4
		C14.4,10.2,14.2,10.1,14,10z"/>
</g>
</svg>
